# xmcd
#
# Track frame offsets:
#	150
#	19670
#	37851
#	50995
#	58944
#	70785
#	79442
#	95074
#	106434
#	115379
#	128797
#	142762
#	157664
#	168494
#	177677
#	194753
#	208951
#	222858
#	241822
#
# Disc length: 3369
#
# Revision: 2
# Processed by: cddbd v1.5.1PL0 Copyright (c) Steve Scherf et al.
# Submitted via: CDWizzard Release:4.35
# Normalized: r1:DSETVAR1,TDELIM( - )
#
DISCID=1e0d2713
DTITLE=Various Artist - Down Home Slide
DYEAR=1900
DGENRE=
TTITLE0=Robert Nighthawk - That's All Right
TTITLE1=John Henry Barbee - I Know She Didn't Love Me
TTITLE2=Fred and Annie Mae McDowell - Jesus Gonna Make Up My Dying Bed
TTITLE3=Big Joe Williams - Roll Me Over Slow
TTITLE4=Robert Nighthawk - Everything Gonna Be Alright
TTITLE5=Elijah Brown - John Henry
TTITLE6=Eddie Taylor - Jackson Town
TTITLE7=George Coleman - Mad and Evil
TTITLE8=Blind Connie Williams - I'm On My Way To Canaan Land
TTITLE9=Big Joe Williams - Which Way My Baby Go
TTITLE10=Johnny Shines - Hoodoo Snake Doctor Blues
TTITLE11=John Littlejohn - Slidin'
TTITLE12=Big Joe Williams - Walk On Little Girl
TTITLE13=Arthur Weston - Poor Boy Long Way From Home
TTITLE14=Robert Nighthawk - Anna Lee
TTITLE15=David "Honeboy" Edwards - Sweet Home Chicago
TTITLE16=Fred McDowell - I'm So Glad I Got Good Religion
TTITLE17=Big Joe Williams - My Lonesome Bed
TTITLE18=Blind Connie Williams - Key To The Highway
EXTD=
EXTT0=
EXTT1=
EXTT2=
EXTT3=
EXTT4=
EXTT5=
EXTT6=
EXTT7=
EXTT8=
EXTT9=
EXTT10=
EXTT11=
EXTT12=
EXTT13=
EXTT14=
EXTT15=
EXTT16=
EXTT17=
EXTT18=
PLAYORDER=
